<svg width="190" height="44" viewBox="0 0 190 44" fill="none" xmlns="http://www.w3.org/2000/svg">
<g clip-path="url(#clip0_179_502)">
<path d="M172.896 36.116V36.1223L167.755 41.3152L157.186 30.6326L162.333 25.4335L172.896 36.116Z" fill="#13AD90"/>
<path d="M184.159 24.7196L173.596 35.4084L163.026 24.7196H163.033L167.611 20.089L173.596 26.141L179.574 20.089L184.159 24.7196Z" fill="#D90F15"/>
<path d="M173.595 14.0383L168.312 19.3809L173.595 24.7234L178.878 19.3809L173.595 14.0383Z" fill="#75982C"/>
<path d="M184.865 25.4282L174.299 36.1133L179.44 41.3129L190.006 30.6278L184.865 25.4282Z" fill="#00A0C6"/>
<path d="M132.062 0C132.636 0.593826 133.23 1.16238 132.936 2.12893C132.63 3.1397 131.899 3.60718 130.937 3.81565C130.712 3.86619 130.487 3.95463 130.262 3.95463C127.932 3.93568 126.596 5.30653 125.684 7.27121C124.797 9.17272 124.359 11.2006 123.972 13.3042C125.403 13.3042 126.777 13.3106 128.151 13.3042C129.519 13.2979 129.888 13.5632 130.094 14.9404C130.156 15.3384 130.319 15.3574 130.6 15.3131C131.15 15.231 131.705 15.1489 132.249 15.0478C133.973 14.7256 134.916 15.6164 134.616 17.3915C134.223 19.71 133.729 22.0032 133.336 24.3216C132.374 29.963 131.2 35.5727 130.637 41.2836C130.419 43.5072 128.126 44.259 126.383 43.6778C125.434 43.3619 125.065 42.288 125.365 40.9677C126.227 37.1268 126.896 33.2416 127.564 29.3628C128.251 25.3829 129.044 21.422 129.082 17.3599C129.082 17.0693 129.151 16.7851 129.188 16.4755C127.514 16.9367 125.84 16.5766 124.184 16.6271C123.479 16.6461 123.254 16.8546 123.135 17.5621C121.792 25.5598 120.568 33.5765 119.056 41.5426C118.887 42.4333 118.606 42.8566 117.613 42.7555C116.576 42.6481 115.514 42.7239 114.465 42.7365C114.04 42.7365 113.896 42.6418 114.002 42.1617C115.72 34.1324 116.77 25.9894 118.163 17.9032C118.275 17.2399 118.494 16.684 117.432 16.5513C116.582 16.4439 116.42 15.5911 116.495 14.8204C116.582 13.9739 117.438 13.1653 118.281 13.3042C119.118 13.4369 119.162 13.0515 119.268 12.4261C119.531 10.891 119.905 9.38751 120.411 7.90926C121.892 3.60718 124.903 1.11816 129.282 0.23374C129.438 0.202154 129.613 0.23374 129.682 0.0315865C130.469 0.0315865 131.256 0.0315865 132.049 0.0315865L132.062 0Z" fill="#019FC5"/>
<path d="M28.1351 5.34449C32.0081 5.30027 35.881 5.48979 39.754 5.275C40.9409 5.21183 41.8904 6.00781 41.9966 7.06279C42.1152 8.162 41.5031 8.90745 40.2787 9.22963C39.4854 9.4381 38.717 9.21068 37.9362 9.19804C35.7374 9.17277 33.5323 9.23595 31.3397 9.16646C30.4651 9.14119 30.5026 9.74133 30.3902 10.2467C29.3532 14.9278 28.4412 19.6405 27.6291 24.3659C26.7858 29.2871 25.7739 34.183 25.1242 39.142C25.0992 39.3379 25.043 39.5337 25.043 39.7296C25.0555 42.5218 22.7942 43.5136 20.358 42.983C19.2023 42.7303 18.6214 41.7132 18.9275 40.5634C21.5573 30.6011 22.9191 20.386 24.8056 10.2783C24.968 9.41915 24.8056 9.12223 23.8624 9.16646C20.9202 9.29912 17.9592 8.95798 15.042 9.69079C13.9488 9.96244 13.0306 8.80005 13.3179 7.66926C13.674 6.26681 15.0108 5.34449 16.7099 5.34449C20.5204 5.34449 24.3246 5.34449 28.1351 5.34449Z" fill="#019FC5"/>
<path d="M147.922 13.3484C148.978 13.2789 150.021 13.3674 151.052 13.6074C152.514 13.9423 153.245 15.0541 152.882 16.3618C152.526 17.6442 151.258 18.238 149.871 17.6442C148.303 16.9746 146.717 16.7787 145.061 17.1199C143.425 17.4547 142.038 18.2001 141.107 19.6531C140.101 21.2135 140.27 22.9507 141.557 24.2774C142.913 25.6735 144.749 26.3494 146.311 27.436C146.717 27.714 147.154 27.9477 147.566 28.2194C150.633 30.1904 151.595 32.812 150.496 36.3308C149.478 39.5905 147.248 41.7384 144.143 42.9324C140.932 44.1642 137.603 44.2527 134.255 43.602C132.986 43.3556 132.293 42.5344 132.168 41.3025C131.968 39.3694 133.311 38.3334 135.085 39.0788C137.378 40.039 139.727 40.1843 142.119 39.6031C143.356 39.3062 144.437 38.6745 145.224 37.6321C146.479 35.9707 146.286 34.126 144.668 32.7994C144.062 32.3003 143.381 31.8897 142.706 31.4728C141.363 30.6452 139.964 29.8998 138.652 29.028C135.148 26.6906 134.292 22.9255 136.403 19.2362C138.334 15.8627 141.332 14.1192 145.074 13.5443C146.017 13.399 146.96 13.2853 147.916 13.3484H147.922Z" fill="#019FC5"/>
<path d="M2.47372 43.1598C0.424799 43.1598 -0.368533 42.0859 0.156191 40.0833C1.58669 34.6062 2.48621 29.0217 3.53566 23.4625C4.38521 18.9456 5.34721 14.454 5.99687 9.89921C6.09057 9.24221 6.15303 8.58521 6.29046 7.93452C6.83393 5.35075 8.98279 5.05384 10.9692 5.71715C11.8313 6.00143 12.2373 7.11959 11.9812 8.16826C9.6387 17.9474 8.24568 27.9161 6.35918 37.7901C6.228 38.4724 6.15928 39.1673 6.09057 39.8558C5.85944 42.0985 4.71004 43.1598 2.47372 43.1598Z" fill="#019FC5"/>
<path d="M80.5638 22.4581C81.5633 20.6324 82.5253 18.7877 83.7871 17.1199C84.9803 15.5406 86.5232 14.473 88.3222 13.7528C88.9969 13.4812 89.6653 13.3548 90.2212 13.9802C90.7584 14.5867 90.7959 15.2942 90.5148 16.0207C90.0963 17.1136 89.2717 17.9412 88.2098 18.1812C82.3316 19.5395 80.3265 24.0121 79.277 29.2871C78.5649 32.8563 77.9277 36.4446 77.6091 40.077C77.4342 42.0859 76.0162 43.2293 74.036 43.0082C72.6867 42.8566 71.8871 41.7258 72.1745 40.3992C73.7049 33.4186 74.923 26.3811 75.9662 19.3057C76.0787 18.5477 76.0412 17.7896 76.0474 17.0252C76.0474 15.4332 76.7158 14.6751 78.2775 14.4414C78.6024 14.3909 78.9272 14.353 79.252 14.3277C81.0885 14.195 81.9006 15.1426 81.5008 16.9304C81.1198 18.6424 80.7512 20.3544 80.3764 22.0664C80.3639 22.2306 80.1328 22.4896 80.5513 22.4581H80.5638Z" fill="#019FC5"/>
<path d="M136.428 7.84613C136.39 8.81899 135.828 10.0888 134.673 11.03C133.798 11.7439 132.786 11.9334 131.724 11.4975C130.75 11.0932 130.306 10.2909 130.169 9.26752C129.925 7.37865 131.299 5.18654 133.042 4.70011C134.997 4.15682 136.447 5.2813 136.428 7.85245V7.84613Z" fill="#019FC5"/>
<path d="M72.7175 7.79557C70.9997 6.09622 68.8133 5.55293 66.5208 5.38236C62.7852 5.1044 59.0435 5.52766 55.3079 5.48344C53.8649 5.46449 52.9154 6.4184 52.6406 7.92823C52.5219 8.57892 52.5032 9.24855 52.3845 9.89923C50.5729 20.1269 49.1487 30.4305 46.4314 40.4813C46.1128 41.65 46.7062 42.7997 47.8244 43.0587C50.3043 43.621 52.1034 42.4333 52.4594 40.0959C53.0341 36.3687 53.7275 32.6605 54.3334 28.9333C54.4271 28.371 54.6083 28.2257 55.1455 28.2889C56.0263 28.3963 56.9071 28.4279 57.7629 28.491C58.8498 28.4152 59.8993 28.3773 60.9425 28.2699C68.6634 27.455 73.9169 23.0645 74.8039 15.1742C75.11 12.4577 74.7852 9.85501 72.7175 7.80821V7.79557ZM68.3573 18.0359C67.058 21.7442 64.4719 23.8352 60.5927 24.2521C59.0247 24.4227 57.4506 24.4732 55.8701 24.4669C55.233 24.4669 55.0643 24.2585 55.1768 23.652C56.0388 18.8951 56.9383 14.1508 58.019 9.43807C58.119 8.99586 58.2751 8.74948 58.7936 8.77475C59.6119 8.81897 60.4365 8.78739 61.2548 8.78739C62.7353 8.71158 64.2095 8.69895 65.6462 9.15379C67.7889 9.82974 68.9383 11.3712 69.0132 13.6328C69.0632 15.1426 68.8508 16.6082 68.3573 18.0296V18.0359Z" fill="#019FC5"/>
<path d="M113.852 21.163C113.559 17.8211 111.697 15.2816 108.493 14.1697C103.589 12.4704 98.8477 13.0705 94.6686 16.2102C89.2215 20.3038 87.2663 26.1726 86.9602 32.7615C86.9602 33.2606 86.9289 33.7597 86.9602 34.2524C87.2413 38.0428 88.7342 41.0625 92.2824 42.7871C96.755 44.9666 103.145 43.9811 107.056 40.2602C112.497 35.0863 114.508 28.5353 113.852 21.1567V21.163ZM108.574 23.2414C108.355 27.3034 107.668 31.258 105.819 34.9284C104.944 36.6656 103.795 38.1818 102.146 39.2431C97.4484 42.2754 92.526 39.8811 92.3261 34.2967C92.1574 29.4892 93.2381 24.8902 95.9055 20.8029C97.336 18.6045 99.2912 17.1389 101.971 16.8483C105.831 16.4313 108.455 18.7308 108.568 22.6475C108.568 22.8434 108.568 23.0455 108.568 23.2414H108.574Z" fill="#019FC5"/>
</g>
<defs>
<clipPath id="clip0_179_502">
<rect width="190" height="44" fill="white"/>
</clipPath>
</defs>
</svg>
